<svg xmlns="http://www.w3.org/2000/svg" width="22.274" height="24.284" viewBox="0 0 22.274 24.284">
  <g id="Icon_ICON_feather_box_SIZE_LARGE_STATE_DEFAULT_STYLE_STYLE2_" data-name="Icon [ICON=feather/box][SIZE=LARGE][STATE=DEFAULT][STYLE=STYLE2]" transform="translate(0.636 1.231)">
    <rect id="Area_ICON:feather_box_SIZE:LARGE_STATE:DEFAULT_STYLE:STYLE2_" data-name="Area [ICON:feather/box][SIZE:LARGE][STATE:DEFAULT][STYLE:STYLE2]" width="21" height="21" transform="translate(0 0.429)" fill="rgba(253,73,198,0.35)" opacity="0"/>
    <g id="Icon" transform="translate(0.703 0)">
      <path id="_8c33e83c-dcbc-4120-8db6-6b33f1f6e54a" data-name="8c33e83c-dcbc-4120-8db6-6b33f1f6e54a" d="M23.181,17.632V8.923a2.177,2.177,0,0,0-1.088-1.883L14.472,2.684a2.176,2.176,0,0,0-2.177,0L4.674,7.039A2.177,2.177,0,0,0,3.586,8.923v8.709a2.175,2.175,0,0,0,1.088,1.882L12.3,23.869a2.176,2.176,0,0,0,2.177,0l7.621-4.355A2.175,2.175,0,0,0,23.181,17.632Z" transform="translate(-3.586 -2.393)" fill="none" stroke="#fff" stroke-linecap="round" stroke-linejoin="round" stroke-width="2.391"/>
      <path id="_6f3a38b6-dced-477f-a37f-04789b448e8e" data-name="6f3a38b6-dced-477f-a37f-04789b448e8e" d="M3.909,8.32l9.5,5.5,9.5-5.5" transform="translate(-3.615 -2.922)" fill="none" stroke="#fff" stroke-linecap="round" stroke-linejoin="round" stroke-width="2.391"/>
      <line id="_732b5865-ea66-43c8-b455-b8d18ebf22b2" data-name="732b5865-ea66-43c8-b455-b8d18ebf22b2" y1="10.973" transform="translate(9.798 10.884)" fill="none" stroke="#fff" stroke-linecap="round" stroke-linejoin="round" stroke-width="2.391"/>
    </g>
  </g>
</svg>
