<svg xmlns="http://www.w3.org/2000/svg" width="18.672" height="24.895" viewBox="0 0 18.672 24.895">
  <g id="fi-rr-user" transform="translate(0 0)">
    <path id="Path_13" data-name="Path 13" d="M12.224,12.448A6.224,6.224,0,1,0,6,6.224a6.224,6.224,0,0,0,6.224,6.224Zm0-10.373A4.149,4.149,0,1,1,8.075,6.224a4.149,4.149,0,0,1,4.149-4.149Z" transform="translate(-2.888 0)" fill="#fff"/>
    <path id="Path_14" data-name="Path 14" d="M12.336,14A9.346,9.346,0,0,0,3,23.336a1.037,1.037,0,1,0,2.075,0,7.261,7.261,0,1,1,14.522,0,1.037,1.037,0,0,0,2.075,0A9.346,9.346,0,0,0,12.336,14Z" transform="translate(-3 0.522)" fill="#fff"/>
  </g>
</svg>
