<svg xmlns="http://www.w3.org/2000/svg" width="21.818" height="20" viewBox="0 0 21.818 20">
  <g id="Icon_ICON_feather_twitter_SIZE_MEDIUM_STATE_DEFAULT_STYLE_STYLE3_" data-name="Icon [ICON=feather/twitter][SIZE=MEDIUM][STATE=DEFAULT][STYLE=STYLE3]" transform="translate(0.909)">
    <rect id="Area_ICON:feather_twitter_SIZE:MEDIUM_STATE:DEFAULT_STYLE:STYLE3_" data-name="Area [ICON:feather/twitter][SIZE:MEDIUM][STATE:DEFAULT][STYLE:STYLE3]" width="20" height="20" fill="rgba(253,73,198,0.35)" opacity="0"/>
    <g id="Icon" transform="translate(0 1.844)">
      <path id="f26f4cb7-c991-4ea5-bdf1-eac82fe7e514" d="M20.909,2.727a9.9,9.9,0,0,1-2.854,1.391,4.073,4.073,0,0,0-7.146,2.727v.91A9.691,9.691,0,0,1,2.727,3.636S-.909,11.818,7.273,15.455A10.59,10.59,0,0,1,.909,17.273c8.182,4.545,18.182,0,18.182-10.455a4.056,4.056,0,0,0-.073-.754A7.017,7.017,0,0,0,20.909,2.727Z" transform="translate(-0.909 -2.718)" fill="none" stroke="#fff" stroke-linecap="round" stroke-linejoin="round" stroke-width="1.818"/>
    </g>
  </g>
</svg>
