<svg xmlns="http://www.w3.org/2000/svg" width="21.818" height="20" viewBox="0 0 21.818 20">
  <g id="Icon_ICON_feather_youtube_SIZE_MEDIUM_STATE_DEFAULT_STYLE_STYLE3_" data-name="Icon [ICON=feather/youtube][SIZE=MEDIUM][STATE=DEFAULT][STYLE=STYLE3]" transform="translate(0.909)">
    <rect id="Area_ICON:feather_youtube_SIZE:MEDIUM_STATE:DEFAULT_STYLE:STYLE3_" data-name="Area [ICON:feather/youtube][SIZE:MEDIUM][STATE:DEFAULT][STYLE:STYLE3]" width="20" height="20" transform="translate(0.172)" fill="rgba(253,73,198,0.35)" opacity="0"/>
    <g id="Icon" transform="translate(0 2.973)">
      <path id="f30b50b2-d136-4808-a850-9087f3fec27e" d="M20.49,5.836a2.528,2.528,0,0,0-1.764-1.818,65.412,65.412,0,0,0-7.817-.382s-6.255,0-7.818.418A2.529,2.529,0,0,0,1.327,5.872a26.379,26.379,0,0,0-.418,4.809,26.4,26.4,0,0,0,.418,4.845,2.526,2.526,0,0,0,1.764,1.746c1.563.418,7.818.418,7.818.418s6.254,0,7.817-.418a2.529,2.529,0,0,0,1.764-1.818,26.344,26.344,0,0,0,.418-4.773A26.416,26.416,0,0,0,20.49,5.836Z" transform="translate(-0.908 -3.636)" fill="none" stroke="#fff" stroke-linecap="round" stroke-linejoin="round" stroke-width="1.818"/>
      <path id="_89c5abf7-d0ad-4311-b773-c81385f048c6" data-name="89c5abf7-d0ad-4311-b773-c81385f048c6" d="M8.863,13.654l5.227-2.973L8.863,7.709Z" transform="translate(-0.908 -3.636)" fill="none" stroke="#fff" stroke-linecap="round" stroke-linejoin="round" stroke-width="1.818"/>
    </g>
  </g>
</svg>
